<svg xmlns="http://www.w3.org/2000/svg" xmlns:xlink="http://www.w3.org/1999/xlink" xmlns:fi="http://pattern.flaticon.com/" x="0" y="0" width="1600" height="800" viewBox="0 0 1400 700"><rect x="0px" y="0px" width="100%" height="100%" opacity="1" fill="#ffffff"/><defs><g transform="matrix(0.10484823561491835 0.04435886860856869 -0.04435886860856869 0.10484823561491835 178.51449225206423 217.80269906786617)" id="L1_0"><path d="M291.057,242.811c1.51,2.953,4.514,4.659,7.62,4.659c1.297,0,2.628-0.299,3.866-0.93     c0.503-0.256,50.731-25.771,75.503-33.596c4.489-1.425,6.98-6.221,5.555-10.709c-1.417-4.489-6.178-6.989-10.709-5.572     c-26.095,8.252-75.981,33.596-78.097,34.671C290.596,233.467,288.924,238.605,291.057,242.811z" fill="#102e52"/><path d="M298.677,145.071c1.297,0,2.628-0.299,3.866-0.93c0.503-0.256,50.731-25.771,75.503-33.596     c4.489-1.425,6.98-6.221,5.555-10.709c-1.417-4.489-6.178-6.989-10.709-5.572c-26.095,8.252-75.981,33.596-78.097,34.671     c-4.198,2.133-5.871,7.27-3.738,11.477C292.567,143.364,295.571,145.071,298.677,145.071z" fill="#102e52"/><path d="M503.469,128.004c-4.719,0-8.533,3.823-8.533,8.533v332.8c0,14.114-11.486,25.6-25.6,25.6h-204.8v-19.635     c12.442-4.352,44.851-14.498,76.8-14.498c74.334,0,124.809,16.461,125.312,16.631c2.568,0.853,5.436,0.427,7.68-1.178     c2.227-1.604,3.541-4.181,3.541-6.921V93.871c0-4.002-2.773-7.467-6.682-8.329c0,0-6.69-1.493-18.125-3.593     c-4.617-0.853-9.079,2.219-9.933,6.844c-0.853,4.642,2.21,9.088,6.844,9.941c4.361,0.802,8.013,1.51,10.829,2.074v357.188     c-19.337-5.069-62.276-14.259-119.467-14.259c-37.18,0-73.702,12.211-85.001,16.35c-10.044-4.437-40.405-16.35-77.133-16.35     c-58.778,0-107.196,9.694-128,14.618V100.475c17.041-4.19,67.371-15.138,128-15.138c31.113,0,57.796,9.685,68.267,14.063v335.804     c0,3.072,1.655,5.914,4.326,7.424c2.671,1.519,5.965,1.476,8.602-0.111c0.845-0.503,85.393-51.004,160.435-76.015     c3.49-1.169,5.837-4.42,5.837-8.098V8.537c0-2.799-1.374-5.419-3.678-7.014c-2.287-1.596-5.222-1.963-7.859-0.981     C346.856,26.15,277.771,69.141,277.079,69.568c-3.994,2.5-5.214,7.765-2.714,11.759c2.492,3.994,7.757,5.214,11.759,2.714     c0.631-0.401,60.732-37.794,123.477-63.027v331.281c-58.249,20.241-119.066,53.291-145.067,68.087V93.871     c0-3.234-1.826-6.187-4.719-7.637c-1.468-0.725-36.437-17.963-80.614-17.963c-77.107,0-136.388,16.683-138.88,17.399     c-3.661,1.041-6.187,4.395-6.187,8.201v375.467c0,2.671,1.263,5.197,3.388,6.81c1.502,1.135,3.311,1.724,5.146,1.724     c0.785,0,1.57-0.111,2.338-0.333c0.589-0.162,59.597-16.734,134.195-16.734c31.198,0,57.856,9.711,68.267,14.071v20.062h-204.8     c-14.114,0-25.6-11.486-25.6-25.6v-332.8c0-4.71-3.823-8.533-8.533-8.533s-8.533,3.823-8.533,8.533v332.8     c0,23.526,19.14,42.667,42.667,42.667h426.667c23.526,0,42.667-19.14,42.667-42.667v-332.8     C512.002,131.827,508.188,128.004,503.469,128.004z" fill="#102e52"/><path d="M291.057,191.611c1.51,2.953,4.514,4.659,7.62,4.659c1.297,0,2.628-0.299,3.866-0.93     c0.503-0.256,50.731-25.771,75.503-33.596c4.489-1.425,6.98-6.221,5.555-10.709c-1.417-4.489-6.178-6.989-10.709-5.572     c-26.095,8.252-75.981,33.596-78.097,34.671C290.596,182.267,288.924,187.405,291.057,191.611z" fill="#102e52"/><path d="M291.057,294.011c1.51,2.953,4.514,4.659,7.62,4.659c1.297,0,2.628-0.299,3.866-0.93     c0.503-0.256,50.731-25.771,75.503-33.596c4.489-1.425,6.98-6.221,5.555-10.709c-1.417-4.489-6.178-6.989-10.709-5.572     c-26.095,8.252-75.981,33.596-78.097,34.671C290.596,284.667,288.924,289.805,291.057,294.011z" fill="#102e52"/><path d="M206.748,158.366c-52.693-12.365-112.572,3.388-115.089,4.062c-4.548,1.22-7.253,5.896-6.033,10.453     c1.024,3.814,4.471,6.323,8.235,6.323c0.734,0,1.476-0.094,2.219-0.29c0.572-0.162,58.223-15.326,106.778-3.934     c4.565,1.067,9.182-1.775,10.257-6.366C214.189,164.032,211.339,159.441,206.748,158.366z" fill="#102e52"/><path d="M206.748,209.566c-52.693-12.356-112.572,3.388-115.089,4.062c-4.548,1.22-7.253,5.897-6.033,10.453     c1.024,3.814,4.471,6.323,8.235,6.323c0.734,0,1.476-0.094,2.219-0.29c0.572-0.162,58.223-15.326,106.778-3.934     c4.565,1.067,9.182-1.775,10.257-6.366C214.189,215.232,211.339,210.641,206.748,209.566z" fill="#102e52"/><path d="M291.057,345.211c1.51,2.953,4.514,4.659,7.62,4.659c1.297,0,2.628-0.299,3.866-0.93     c0.503-0.256,50.731-25.771,75.503-33.596c4.489-1.425,6.98-6.221,5.555-10.709c-1.417-4.488-6.178-6.989-10.709-5.572     c-26.095,8.252-75.981,33.596-78.097,34.671C290.596,335.867,288.924,341.005,291.057,345.211z" fill="#102e52"/><path d="M206.748,260.766c-52.693-12.356-112.572,3.379-115.089,4.062c-4.548,1.22-7.253,5.897-6.033,10.453     c1.024,3.814,4.471,6.332,8.235,6.332c0.734,0,1.476-0.102,2.219-0.299c0.572-0.162,58.223-15.326,106.778-3.934     c4.565,1.067,9.182-1.775,10.257-6.366C214.189,266.432,211.339,261.841,206.748,260.766z" fill="#102e52"/><path d="M206.748,363.166c-52.693-12.365-112.572,3.388-115.089,4.062c-4.548,1.22-7.253,5.897-6.033,10.453     c1.024,3.814,4.471,6.332,8.235,6.332c0.734,0,1.476-0.102,2.219-0.299c0.572-0.162,58.223-15.326,106.778-3.934     c4.565,1.058,9.182-1.775,10.257-6.366C214.189,368.832,211.339,364.241,206.748,363.166z" fill="#102e52"/><path d="M206.748,311.966c-52.693-12.365-112.572,3.379-115.089,4.062c-4.548,1.22-7.253,5.897-6.033,10.453     c1.024,3.814,4.471,6.332,8.235,6.332c0.734,0,1.476-0.102,2.219-0.299c0.572-0.162,58.223-15.326,106.778-3.934     c4.565,1.067,9.182-1.775,10.257-6.366C214.189,317.632,211.339,313.041,206.748,311.966z" fill="#102e52"/></g><g transform="matrix(0.11958606873109233 -0.04369490904066827 0.04369490904066827 0.11958606873109233 73.20000223799474 178.5718488722089)" id="L1_1"><path d="M256.001,221.868c10.761,0,20.13-4.045,25.6-7.049c5.47,3.004,14.839,7.049,25.6,7.049     c15.889,0,33.647-9.028,41.233-20.864c0.751-1.135,18.5-28.262,18.5-73.003c0-32.939-26.795-59.733-59.733-59.733     c-9.651,0-18.449,3.541-25.6,7.305c-7.151-3.763-15.949-7.305-25.6-7.305c-32.939,0-59.733,26.795-59.733,59.733     c0,50.56,15.727,70.204,19.149,73.865C223.13,211.577,238.968,221.868,256.001,221.868z M256.001,85.335     c7.612,0,15.394,3.942,21.325,7.381c2.645,1.536,5.905,1.536,8.55,0c5.931-3.439,13.713-7.381,21.325-7.381     c23.526,0,42.667,19.14,42.667,42.667c0,39.27-15.488,63.317-15.718,63.659c-3.985,6.212-16.026,13.141-26.948,13.141     c-10.999,0-20.446-6.801-20.506-6.844c-1.51-1.126-3.302-1.69-5.094-1.69s-3.584,0.563-5.094,1.69     c-0.094,0.068-9.506,6.844-20.506,6.844c-10.871,0-22.221-7.091-27.383-13.756c-0.171-0.222-0.461-0.546-0.657-0.751     c-0.145-0.154-14.626-16.026-14.626-62.293C213.334,104.475,232.474,85.335,256.001,85.335z" fill="#102e52"/><path d="M274.288,55.596c1.596,2.662,4.42,4.139,7.322,4.139c1.493,0,3.012-0.393,4.386-1.22     c4.036-2.423,5.35-7.663,2.918-11.708l-25.6-42.667c-2.424-4.036-7.663-5.35-11.708-2.918c-4.036,2.423-5.35,7.663-2.918,11.708     L274.288,55.596z" fill="#102e52"/><path d="M300.929,54.367c0.597,0.196,6.042,1.946,13.244,1.946h0.009c10.206,0,19.081-3.482,25.643-10.052     c15.616-15.616,8.414-37.956,8.098-38.904c-0.853-2.543-2.85-4.54-5.393-5.393c-0.606-0.196-6.05-1.946-13.261-1.946     c-10.206,0-19.072,3.473-25.643,10.044c-15.616,15.625-8.405,37.956-8.098,38.904C296.38,51.517,298.377,53.514,300.929,54.367z      M315.691,22.128c3.345-3.345,7.91-5.043,13.577-5.043c1.203,0,2.338,0.077,3.345,0.196c0.521,4.599,0.282,11.776-4.855,16.913     c-3.345,3.345-7.919,5.052-13.577,5.052c-1.203,0-2.338-0.085-3.345-0.196C310.315,34.442,310.554,27.265,315.691,22.128z" fill="#102e52"/><path d="M486.401,238.935h-409.6c-14.114,0-25.6,11.486-25.6,25.6v34.133c0,4.71,3.823,8.533,8.533,8.533     s8.533-3.823,8.533-8.533v-34.133c0-4.702,3.831-8.533,8.533-8.533h25.6v42.667c0,4.71,3.823,8.533,8.533,8.533     s8.533-3.823,8.533-8.533v-42.667h221.867v42.667c0,4.71,3.823,8.533,8.533,8.533s8.533-3.823,8.533-8.533v-42.667h85.333v42.667     c0,4.71,3.823,8.533,8.533,8.533c4.71,0,8.533-3.823,8.533-8.533v-42.667h25.6c4.702,0,8.533,3.831,8.533,8.533v59.733h-25.6     c-4.71,0-8.533,3.823-8.533,8.533v76.8h-8.533c-4.71,0-8.533,3.823-8.533,8.533c0,4.71,3.823,8.533,8.533,8.533h25.6v59.733     c0,4.702-3.831,8.533-8.533,8.533H204.801v-42.667c0-4.71-3.823-8.533-8.533-8.533s-8.533,3.823-8.533,8.533v42.667h-17.067     v-42.667c0-4.71-3.823-8.533-8.533-8.533c-4.71,0-8.533,3.823-8.533,8.533v42.667h-17.067v-42.667     c0-4.71-3.823-8.533-8.533-8.533s-8.533,3.823-8.533,8.533v42.667h-76.8c-4.702,0-8.533-3.831-8.533-8.533v-34.133     c0-4.71-3.823-8.533-8.533-8.533c-4.71,0-8.533,3.823-8.533,8.533v34.133c0,14.114,11.486,25.6,25.6,25.6h426.667     c14.114,0,25.6-11.486,25.6-25.6v-59.733c0-11.085-8.789-17.067-17.067-17.067v-68.267h17.067     c8.277,0,17.067-5.982,17.067-17.067v-59.733C512.001,250.421,500.515,238.935,486.401,238.935z" fill="#102e52"/><path d="M332.801,426.668c4.71,0,8.533-3.823,8.533-8.533c0-4.71-3.823-8.533-8.533-8.533h-93.867v-68.267h119.467v128     c0,3.149,1.732,6.042,4.506,7.526c2.765,1.476,6.144,1.314,8.764-0.427l20.864-13.909l20.864,13.909     c1.434,0.956,3.081,1.434,4.736,1.434c1.382,0,2.765-0.333,4.028-1.007c2.773-1.485,4.506-4.378,4.506-7.526v-128h8.533     c4.71,0,8.533-3.823,8.533-8.533s-3.823-8.533-8.533-8.533h-409.6c-14.353,0-25.6,11.247-25.6,25.6v51.2     c0,14.114,11.486,25.6,25.6,25.6H332.801z M375.467,341.335h34.133v112.051l-12.331-8.218c-2.867-1.911-6.605-1.911-9.472,0     l-12.331,8.218V341.335z M102.401,341.335h119.467v68.267H102.401V341.335z M17.067,401.068v-51.2     c0-4.864,3.669-8.533,8.533-8.533h59.733v68.267H25.601C20.814,409.602,17.067,405.855,17.067,401.068z" fill="#102e52"/><path d="M179.201,358.401c-4.71,0-8.533,3.823-8.533,8.533v17.067c0,4.71,3.823,8.533,8.533,8.533s8.533-3.823,8.533-8.533     v-17.067C187.734,362.224,183.911,358.401,179.201,358.401z" fill="#102e52"/><path d="M145.067,358.401c-4.71,0-8.533,3.823-8.533,8.533v17.067c0,4.71,3.823,8.533,8.533,8.533     c4.71,0,8.533-3.823,8.533-8.533v-17.067C153.601,362.224,149.778,358.401,145.067,358.401z" fill="#102e52"/></g><g transform="matrix(0.13515882360952178 0.04359962011762005 -0.04359962011762005 0.13515882360952178 180.56081474086514 91.23779129075425)" id="L1_2"><path d="M65.826,170.317c4.523,1.323,9.259-1.28,10.573-5.811c25.276-86.81,106.146-147.439,196.668-147.439     c14.49,0,28.894,1.51,42.923,4.506c-0.307,12.279,4.992,20.702,8.405,26.112c0.947,1.502,2.236,3.55,2.389,3.831     c0,30.601-6.255,35.584-6.187,35.601c-13.833,0-36.531,12.356-45.065,28.288c-5.239,9.771-4.813,20.113,1.186,29.124     c4.113,6.17,7.654,13.03,11.085,19.669c7.253,14.046,15.3,29.628,27.938,29.628c2.671,0,5.555-0.7,8.678-2.261     c9.95-4.975,17.084-19.123,23.979-32.794c3.038-6.025,7.501-14.865,10.146-17.673c8.661,1.178,12.894,9.011,18.62,21.419     c4.215,9.131,8.576,18.56,17.143,22.844c14.421,7.211,61.841-0.341,88.047-11.469c3.917-1.664,6.007-5.965,4.898-10.078     c-17.911-66.219-66.56-121.301-130.15-147.337c-4.36-1.792-9.353,0.299-11.136,4.659s0.307,9.344,4.668,11.127     c56.329,23.074,99.96,70.818,118.008,128.649c-26.556,9.361-60.638,12.177-66.705,9.182c-3.208-1.604-6.434-8.576-9.276-14.729     c-5.948-12.885-14.097-30.532-34.901-31.454c-10.752-0.649-16.811,11.725-24.602,27.179     c-4.574,9.062-11.477,22.758-16.981,25.464c-3.166-0.742-9.455-12.919-13.21-20.19c-3.473-6.724-7.407-14.345-12.049-21.299     c-2.517-3.772-2.62-7.356-0.341-11.605c5.862-10.94,23.45-19.277,30.02-19.277c15.428,0,23.253-17.715,23.253-52.668     c0-4.966-2.551-9.011-5.009-12.928c-3.618-5.726-7.347-11.656-5.137-21.777c0.981-4.497-1.783-8.969-6.246-10.095     C309.786,2.261,291.482,0,273.067,0C175.002,0,87.39,65.69,60.015,159.744C58.692,164.267,61.303,169.003,65.826,170.317z" fill="#102e52"/><path d="M375.433,226.304c-2.466,0.7-5.837,1.673-6.733,1.741c-11.793,0-19.268,9.131-24.721,15.795     c-2.082,2.543-5.845,7.108-8.243,7.177c-3.857-1.929-7.91-2.901-12.049-2.901c-10.061,0-18.773,5.982-20.719,14.242     c-1.374,5.803,0.649,13.747,10.419,18.637c13.858,6.929,28.186,14.089,34.56,20.463c4.386,4.386,11.972,6.903,20.821,6.903     c13.44,0,31.309-6.528,37.444-24.943c2.423-7.253,8.218-12.8,13.824-18.159c6.502-6.238,12.655-12.117,12.74-20.557     c0.06-4.984-2.15-9.745-6.554-14.157c-5.999-5.99-14.165-9.037-24.286-9.037C392.226,221.508,382.515,224.282,375.433,226.304z      M415.71,244.471c-0.401,1.681-4.651,5.751-7.475,8.456c-6.443,6.161-14.456,13.833-18.21,25.097     c-4.215,12.629-18.449,13.269-21.257,13.269c-4.975,0-8.098-1.314-8.747-1.894c-8.346-8.346-23.236-15.795-39.006-23.671     c-0.034-0.017-0.06-0.026-0.094-0.043c1.604-0.657,4.574-0.7,7.185,0.597c2.756,1.382,5.589,2.082,8.405,2.082     c9.446,0,15.411-7.287,20.668-13.713c3.849-4.685,7.817-9.54,11.52-9.54c3.029,0,6.554-1.007,11.418-2.398     c6.46-1.843,14.498-4.139,21.82-4.139c5.504,0,9.498,1.323,12.211,4.036C415.334,243.806,415.659,244.471,415.71,244.471z" fill="#102e52"/><path d="M492.817,191.164c-0.649-4.676-5.018-7.927-9.617-7.287c-4.668,0.649-7.936,4.958-7.287,9.626     c1.297,9.378,1.954,18.927,1.954,28.365c0,112.111-90.539,203.46-202.342,204.783c-30.345-19.379-58.786-43.119-46.114-72.678     c22.75-53.103,1.579-72.892-7.467-81.357l-1.698-1.613c-2.586-2.577-5.504-4.335-8.073-5.879     c-6.246-3.746-7.927-4.753-4.574-14.814c2.219-6.682,5.171-9.796,8.576-13.406c7.893-8.346,13.926-16.648,13.926-40.781     c0-14.046-7.125-25.25-19.55-30.737c-14.089-6.229-32.905-4.028-42.854,5.001c-6.212,5.649-8.303,13.338-5.726,21.077     c6.084,18.219-7.817,44.553-33.792,64.034c-6.878,5.154-8.926,2.79-10.155,1.382c-7.62-8.781-7.031-33.758-0.777-40.004     c4.19-4.19,5.436-9.54,3.328-14.31c-6.912-15.676-51.004-14.464-59.75-14.054c-4.156,0.196-7.569,3.354-8.081,7.484     c-1.084,8.823-1.544,16.563-1.544,25.873c0,102.315,69.282,190.882,168.474,215.39c4.557,1.135,9.199-1.664,10.325-6.238     c1.135-4.574-1.664-9.199-6.238-10.325C132.207,398.071,68.267,316.305,68.267,221.867c0-5.922,0.205-11.153,0.657-16.486     c14.438-0.017,26.701,1.655,32.956,3.567c-9.788,15.283-8.713,45.329,3.251,59.119c8.576,9.882,21.018,10.291,33.289,1.084     c32.785-24.585,48.384-57.208,39.74-83.081c-0.273-0.845-0.546-1.638,1.024-3.063c4.489-4.079,15.915-5.803,24.465-2.014     c6.315,2.79,9.387,7.74,9.387,15.13c0,19.26-3.883,23.373-9.259,29.056c-3.985,4.224-8.951,9.472-12.373,19.738     c-7.671,23.049,4.634,30.438,11.989,34.85c1.903,1.135,3.695,2.21,4.787,3.302c0.623,0.623,1.331,1.289,2.108,2.014     c7.509,7.014,21.47,20.079,3.439,62.157c-20.446,47.71,32.273,80.973,54.784,95.181c1.365,0.853,2.944,1.314,4.557,1.314     c122.334,0,221.867-99.533,221.867-221.867C494.933,211.644,494.225,201.318,492.817,191.164z" fill="#102e52"/><path d="M415.667,413.602c-41.438,30.874-90.752,47.198-142.601,47.198c-131.746,0-238.933-107.179-238.933-238.933     c0-4.71-3.823-8.533-8.533-8.533s-8.533,3.823-8.533,8.533c0,138.3,110.251,251.255,247.467,255.787v25.813     c0,4.71,3.823,8.533,8.533,8.533s8.533-3.823,8.533-8.533v-25.941c52.403-1.698,102.144-18.85,144.265-50.236     c3.78-2.816,4.557-8.158,1.741-11.947C424.789,411.571,419.456,410.786,415.667,413.602z" fill="#102e52"/><path d="M279.595,345.745c-10.65,0-23.142,12.254-27.699,23.253c-3.558,8.593-2.5,16.606,2.91,22.016     c5.094,5.094,12.655,8.021,20.745,8.021s15.65-2.927,20.753-8.021c5.666-5.666,7.049-13.995,3.891-23.441     c-2.125-6.383-6.34-13.133-11.255-18.057C286.498,347.085,283.179,345.745,279.595,345.745z M284.237,378.94     c-3.789,3.789-13.636,3.686-17.323,0.094c-0.119-0.367-0.111-2.5,2.15-6.238c2.944-4.855,7.1-8.286,9.353-9.506     c2.423,2.876,4.523,6.477,5.589,9.677C284.954,375.791,285.039,378.146,284.237,378.94z" fill="#102e52"/></g><g transform="matrix(0.1010800310063956 -0.024066674538689763 0.024066674538689763 0.1010800310063956 64.98982313837635 74.3254808533412)" id="L1_3"><path d="M375.451,315.733c0-4.71-3.823-8.533-8.533-8.533h-51.2c-4.71,0-8.533,3.823-8.533,8.533s3.823,8.533,8.533,8.533h51.2     C371.628,324.267,375.451,320.444,375.451,315.733z" fill="#102e52"/><path d="M341.317,93.867V51.2c0-4.71-3.823-8.533-8.533-8.533s-8.533,3.823-8.533,8.533v42.667     c0,23.526,19.14,42.667,42.667,42.667h76.8v162.133c0,4.71,3.823,8.533,8.533,8.533s8.533-3.823,8.533-8.533V128     c0-4.71-3.823-8.533-8.533-8.533h-85.333C352.803,119.467,341.317,107.981,341.317,93.867z" fill="#102e52"/><path d="M366.917,204.8h-68.267c-4.71,0-8.533,3.823-8.533,8.533c0,4.71,3.823,8.533,8.533,8.533h68.267     c4.71,0,8.533-3.823,8.533-8.533C375.451,208.623,371.628,204.8,366.917,204.8z" fill="#102e52"/><path d="M273.051,213.333c0-4.71-3.823-8.533-8.533-8.533h-51.2c-4.71,0-8.533,3.823-8.533,8.533c0,4.71,3.823,8.533,8.533,8.533     h51.2C269.228,221.867,273.051,218.044,273.051,213.333z" fill="#102e52"/><path d="M213.317,256c-4.71,0-8.533,3.823-8.533,8.533c0,4.71,3.823,8.533,8.533,8.533h17.067c4.71,0,8.533-3.823,8.533-8.533     c0-4.71-3.823-8.533-8.533-8.533H213.317z" fill="#102e52"/><path d="M213.317,170.667h85.333c4.71,0,8.533-3.823,8.533-8.533c0-4.71-3.823-8.533-8.533-8.533h-85.333     c-4.71,0-8.533,3.823-8.533,8.533C204.784,166.844,208.607,170.667,213.317,170.667z" fill="#102e52"/><path d="M264.517,273.067h85.333c4.71,0,8.533-3.823,8.533-8.533c0-4.71-3.823-8.533-8.533-8.533h-85.333     c-4.71,0-8.533,3.823-8.533,8.533C255.984,269.244,259.807,273.067,264.517,273.067z" fill="#102e52"/><path d="M315.717,358.4c-4.71,0-8.533,3.823-8.533,8.533s3.823,8.533,8.533,8.533h17.067c4.71,0,8.533-3.823,8.533-8.533     s-3.823-8.533-8.533-8.533H315.717z" fill="#102e52"/><path d="M281.584,307.2h-68.267c-4.71,0-8.533,3.823-8.533,8.533s3.823,8.533,8.533,8.533h68.267c4.71,0,8.533-3.823,8.533-8.533     S286.294,307.2,281.584,307.2z" fill="#102e52"/><path d="M281.584,358.4h-68.267c-4.71,0-8.533,3.823-8.533,8.533s3.823,8.533,8.533,8.533h68.267c4.71,0,8.533-3.823,8.533-8.533     S286.294,358.4,281.584,358.4z" fill="#102e52"/><path d="M484.754,351.497l-17.067-17.067c-13.116-13.116-33.101-13.09-46.199,0L309.684,446.234     c-1.596,1.596-2.5,3.772-2.5,6.033v51.2c0,4.71,3.823,8.533,8.533,8.533h51.2c2.261,0,4.437-0.904,6.033-2.5l111.804-111.804     C498.348,384.102,498.348,365.099,484.754,351.497z M410.454,369.596l13.534,13.534l-74.138,74.138l-13.534-13.534     L410.454,369.596z M324.251,494.933v-39.134l39.134,39.134H324.251z M375.451,482.867l-13.534-13.534l74.138-74.138     l13.534,13.534L375.451,482.867z M472.688,385.63l-11.034,11.034l-39.134-39.134l11.034-11.034     c6.741-6.733,15.292-6.767,22.067,0l17.067,17.067C479.591,370.475,479.591,378.726,472.688,385.63z" fill="#102e52"/><path d="M281.584,494.933H59.717c-14.114,0-25.6-11.486-25.6-25.6V42.667c0-14.114,11.486-25.6,25.6-25.6h269.534L412.084,99.9     c3.336,3.337,8.73,3.337,12.066,0c3.337-3.336,3.337-8.73,0-12.066L338.817,2.5c-1.596-1.604-3.772-2.5-6.033-2.5H59.717     C36.191,0,17.051,19.14,17.051,42.667v426.667c0,23.526,19.14,42.667,42.667,42.667h221.867c4.71,0,8.533-3.823,8.533-8.533     S286.294,494.933,281.584,494.933z" fill="#102e52"/><path d="M281.584,409.6h-68.267c-4.71,0-8.533,3.823-8.533,8.533s3.823,8.533,8.533,8.533h68.267c4.71,0,8.533-3.823,8.533-8.533     S286.294,409.6,281.584,409.6z" fill="#102e52"/><path d="M170.651,162.133c0-4.71-3.823-8.533-8.533-8.533h-51.2c-4.71,0-8.533,3.823-8.533,8.533v51.2     c0,4.71,3.823,8.533,8.533,8.533h51.2c4.71,0,8.533-3.823,8.533-8.533V162.133z M153.584,204.8h-34.133v-34.133h34.133V204.8z" fill="#102e52"/><path d="M110.917,426.667h51.2c4.71,0,8.533-3.823,8.533-8.533v-51.2c0-4.71-3.823-8.533-8.533-8.533h-51.2     c-4.71,0-8.533,3.823-8.533,8.533v51.2C102.384,422.844,106.207,426.667,110.917,426.667z M119.451,375.467h34.133V409.6h-34.133     V375.467z" fill="#102e52"/><path d="M121.951,321.766c1.604,1.604,3.78,2.5,6.033,2.5c0.282,0,0.555-0.008,0.845-0.043c2.543-0.247,4.838-1.63,6.255-3.755     l34.133-51.2c2.611-3.925,1.553-9.225-2.364-11.836c-3.934-2.62-9.216-1.553-11.836,2.364l-28.356,42.539l-9.711-9.702     c-3.336-3.337-8.73-3.337-12.066,0s-3.337,8.73,0,12.066L121.951,321.766z" fill="#102e52"/></g><g transform="matrix(0.12429542318184149 -0.03163883445766356 0.03163883445766356 0.12429542318184149 94.0808300442867 299.27991328661045)" id="L1_5"><path d="M423.484,494.93c-1.86-1.86-4.431-2.93-7.07-2.93c-2.63,0-5.21,1.07-7.07,2.93c-1.859,1.86-2.93,4.44-2.93,7.07    s1.07,5.21,2.93,7.07c1.86,1.86,4.44,2.93,7.07,2.93s5.21-1.07,7.07-2.93c1.87-1.86,2.93-4.44,2.93-7.07    S425.354,496.79,423.484,494.93z" fill="#102e52"/><path d="M505.019,167.853c-6.035-8.807-15.149-14.677-25.663-16.531c-17.021-3.001-33.662,5.531-41.546,20.144V65.948    c0-21.38-17.395-38.773-38.774-38.773c-6.993,0-13.552,1.87-19.223,5.122C376.72,13.991,360.763,0,341.59,0    c-19.173,0-35.129,13.991-38.222,32.297c-5.671-3.252-12.23-5.122-19.223-5.122c-20.099,0-36.672,15.374-38.585,34.979    c-5.587-3.124-12.017-4.913-18.86-4.913c-21.38,0-38.773,17.394-38.773,38.773c0,5.523,4.478,10,10,10c5.522,0,10-4.477,10-10    c0-10.352,8.422-18.773,18.773-18.773c9.694,0,17.695,7.387,18.672,16.828v26.66c0,5.523,4.478,10,10,10c5.522,0,10-4.477,10-10    v-54.78c0-10.352,8.422-18.773,18.773-18.773c9.694,0,17.695,7.387,18.672,16.828v77.799c0,0.459,0.102,3.783,0.102,3.783    c0,5.523,4.478,10,10,10c5.522,0,10-4.477,10-10V65.948c0-0.895-0.042-1.781-0.102-2.661V38.773    c0-10.352,8.422-18.773,18.773-18.773s18.773,8.422,18.773,18.773v24.514c-0.06,0.88-0.102,1.766-0.102,2.661v140.633    c0,5.523,4.478,10,10,10c5.522,0,10-4.477,10-10l0.102-142.579c0.977-9.441,8.978-16.828,18.673-16.828    c10.352,0,18.773,8.422,18.773,18.773V213.87c0,7.314,5.271,13.26,12.532,14.137c7.255,0.881,13.795-3.642,15.538-10.747    l7.783-31.752c2.427-9.895,12.177-16.263,22.22-14.491c5.178,0.913,9.666,3.804,12.639,8.141    c2.972,4.337,4.049,9.567,3.031,14.726l-15.066,76.403c-5.057,25.646-17.514,48.957-36.022,67.414l-31.107,31.019    c-1.882,1.876-2.939,4.424-2.939,7.081V465c0,5.523,4.478,10,10,10c5.522,0,10-4.477,10-10v-85.048l28.169-28.088    c21.335-21.275,35.693-48.146,41.523-77.707l15.066-76.403C513.241,187.279,511.054,176.66,505.019,167.853z" fill="#102e52"/><path d="M296.592,309c-5.522,0-10,4.477-10,10v29.328c0,32.889-12.826,63.792-36.116,87.016l-18.949,18.895    c-1.882,1.876-2.939,4.424-2.939,7.081V502c0,5.523,4.478,10,10,10c5.522,0,10-4.477,10-10v-36.529l16.01-15.964    c27.081-27.003,41.995-62.936,41.995-101.178V319C306.592,313.477,302.115,309,296.592,309z" fill="#102e52"/><path d="M303.663,276.43c-1.86-1.86-4.44-2.93-7.07-2.93s-5.21,1.07-7.069,2.93c-1.86,1.86-2.931,4.44-2.931,7.07    s1.07,5.21,2.931,7.07c1.859,1.86,4.439,2.93,7.069,2.93s5.21-1.07,7.07-2.93c1.86-1.86,2.93-4.44,2.93-7.07    S305.524,278.29,303.663,276.43z" fill="#102e52"/><path d="M269.473,160.504c-6.247,0-12.134,1.558-17.304,4.295c-2.224-18.357-17.89-32.631-36.838-32.631    c-6.403,0-12.432,1.63-17.695,4.497c-3.288-17.126-18.375-30.109-36.446-30.109c-18.071,0-33.159,12.983-36.446,30.109    c-5.263-2.867-11.293-4.497-17.696-4.497c-20.467,0-37.118,16.651-37.118,37.119v97.303c-7.913-12.833-23.13-20.146-38.682-17.406    c-10.063,1.774-18.786,7.394-24.563,15.823c-5.777,8.429-7.869,18.592-5.893,28.617l14.2,72.009    c5.517,27.974,19.104,53.401,39.294,73.534l26.379,26.304V502c0,5.523,4.478,10,10,10c5.522,0,10-4.477,10-10v-40.68    c0-2.657-1.058-5.205-2.939-7.081l-29.317-29.235c-17.364-17.315-29.05-39.183-33.794-63.241l-14.2-72.009    c-0.928-4.709,0.055-9.483,2.768-13.442c2.714-3.959,6.812-6.599,11.538-7.432c9.16-1.616,18.068,4.195,20.283,13.228    l7.336,29.926c1.711,6.982,8.123,11.429,15.271,10.563c7.138-0.862,12.318-6.706,12.318-13.895V169.286    c0-9.439,7.68-17.119,17.119-17.119c8.832,0,16.122,6.725,17.022,15.324v73.285c0,5.523,4.478,10,10,10    c0.016,0,0.032-0.002,0.048-0.002s0.032,0.002,0.048,0.002c5.522,0,10-4.477,10-10v-71.491c0-0.85-0.039-1.691-0.096-2.527    v-23.085c0-9.439,7.68-17.119,17.119-17.119c9.439,0,17.119,7.679,17.119,17.119v23.085c-0.057,0.836-0.096,1.677-0.096,2.527    v71.491c0,5.523,4.478,10,10,10c0.016,0,0.032-0.002,0.048-0.002s0.032,0.002,0.048,0.002c5.522,0,10-4.477,10-10v-73.285    c0.9-8.599,8.189-15.324,17.022-15.324c9.439,0,17.119,7.679,17.119,17.119l-0.095,71.491c0,5.523,4.478,10,10,10    c0.016,0,0.032-0.002,0.048-0.002c0.016,0,0.032,0.002,0.048,0.002c5.522,0,10-4.477,10-10v-44.949    c0.9-8.599,8.19-15.324,17.023-15.324c9.439,0,17.119,7.679,17.119,17.119v46.711c0,5.523,4.478,10,10,10c5.522,0,10-4.477,10-10    v-46.711C306.592,177.156,289.941,160.504,269.473,160.504z" fill="#102e52"/><path d="M148.876,55.683L96.148,2.955c-3.905-3.905-10.235-3.905-14.143,0c-3.905,3.905-3.905,10.237,0,14.142l52.729,52.728    c1.953,1.953,4.512,2.929,7.071,2.929s5.118-0.977,7.071-2.929C152.781,65.92,152.781,59.588,148.876,55.683z" fill="#102e52"/><path d="M113.503,82.481H89.101c-5.522,0-10,4.477-10,10s4.478,10,10,10h24.402c5.522,0,10-4.477,10-10    S119.025,82.481,113.503,82.481z" fill="#102e52"/><path d="M171.074,0c-5.522,0-10,4.477-10,10v25.218c0,5.523,4.477,10,10,10c5.522,0,10-4.477,10-10V10    C181.074,4.477,176.596,0,171.074,0z" fill="#102e52"/></g><g transform="matrix(0.11314287945898759 -0.03415634201888186 0.03415634201888186 0.11314287945898759 285.2913993016654 101.77944641533293)" id="L1_7"><path d="M298.662,0H179.196c-23.526,0-42.667,19.14-42.667,42.667v307.2c0,4.71,3.814,8.533,8.533,8.533h51.2     c4.719,0,8.533-3.823,8.533-8.533s-3.814-8.533-8.533-8.533h-42.667v-17.067h8.533c4.719,0,8.533-3.823,8.533-8.533     s-3.814-8.533-8.533-8.533h-8.533v-17.067h8.533c4.719,0,8.533-3.823,8.533-8.533s-3.814-8.533-8.533-8.533h-8.533V256h8.533     c4.719,0,8.533-3.823,8.533-8.533s-3.814-8.533-8.533-8.533h-8.533v-17.067h42.667c4.719,0,8.533-3.823,8.533-8.533     c0-4.71-3.814-8.533-8.533-8.533h-42.667v-17.067h8.533c4.719,0,8.533-3.823,8.533-8.533s-3.814-8.533-8.533-8.533h-8.533V153.6     h8.533c4.719,0,8.533-3.823,8.533-8.533c0-4.71-3.814-8.533-8.533-8.533h-8.533v-17.067h8.533c4.719,0,8.533-3.823,8.533-8.533     s-3.814-8.533-8.533-8.533h-8.533V85.333h42.667c4.719,0,8.533-3.823,8.533-8.533s-3.814-8.533-8.533-8.533h-42.667v-25.6     c0-14.114,11.486-25.6,25.6-25.6h119.467c14.114,0,25.6,11.486,25.6,25.6v426.667c0,14.114-11.486,25.6-25.6,25.6H179.196     c-14.114,0-25.6-11.486-25.6-25.6V384c0-4.71-3.814-8.533-8.533-8.533c-4.719,0-8.533,3.823-8.533,8.533v85.333     c0,23.526,19.14,42.667,42.667,42.667h119.467c23.526,0,42.667-19.14,42.667-42.667V42.667C341.329,19.14,322.189,0,298.662,0z" fill="#102e52"/><path d="M34.138,110.925v307.2c0,4.71,3.814,8.533,8.533,8.533s8.533-3.823,8.533-8.533v-307.2c0-4.71-3.814-8.533-8.533-8.533     S34.138,106.214,34.138,110.925z" fill="#102e52"/><path d="M50.3,4.71c-2.893-5.786-12.365-5.786-15.266,0L0.9,72.977c-0.589,1.178-0.896,2.492-0.896,3.814v392.533     c0,23.526,19.14,42.667,42.667,42.667c23.526,0,42.667-19.14,42.667-42.667v-17.067c0-4.71-3.814-8.533-8.533-8.533H42.671     c-4.719,0-8.533,3.823-8.533,8.533c0,4.71,3.814,8.533,8.533,8.533h25.6v8.533c0,14.114-11.486,25.6-25.6,25.6     s-25.6-11.486-25.6-25.6V78.805l25.6-51.2l20.326,40.653H42.671c-4.719,0-8.533,3.823-8.533,8.533     c0,4.71,3.814,8.533,8.533,8.533h25.6v332.8c0,4.71,3.814,8.533,8.533,8.533s8.533-3.823,8.533-8.533V76.809v-0.154     c-0.026-1.382-0.375-2.688-0.973-3.831L50.3,4.71z" fill="#102e52"/><path d="M273.062,426.667c0-18.825-15.309-34.133-34.133-34.133s-34.133,15.309-34.133,34.133s15.309,34.133,34.133,34.133     S273.062,445.491,273.062,426.667z M221.862,426.667c0-9.412,7.654-17.067,17.067-17.067c9.404,0,17.067,7.654,17.067,17.067     s-7.663,17.067-17.067,17.067C229.517,443.733,221.862,436.079,221.862,426.667z" fill="#102e52"/><path d="M435.196,409.6c-4.719,0-8.533,3.823-8.533,8.533s3.814,8.533,8.533,8.533h68.267c4.719,0,8.533-3.823,8.533-8.533v-51.2     c0-23.526-19.14-42.667-42.667-42.667h-34.133c-23.526,0-42.667,19.14-42.667,42.667v102.4c0,23.526,19.14,42.667,42.667,42.667     h34.133c23.526,0,42.667-19.14,42.667-42.667v-17.067c0-4.71-3.814-8.533-8.533-8.533c-4.719,0-8.533,3.823-8.533,8.533v17.067     c0,14.114-11.486,25.6-25.6,25.6h-34.133c-14.114,0-25.6-11.486-25.6-25.6v-102.4c0-14.114,11.486-25.6,25.6-25.6h34.133     c14.114,0,25.6,11.486,25.6,25.6V409.6H435.196z" fill="#102e52"/></g><g transform="matrix(0.1287199868898046 0.04529036596700261 -0.04529036596700261 0.1287199868898046 268.9763064591875 182.24074654371103)" id="L1_8"><path d="m479.816406 418.746094c-.703125-3.195313-3.289062-5.636719-6.519531-6.167969l-51.007813-8.398437-33.773437-5.601563h-.210937c-.921876-.144531-1.867188-.117187-2.78125.074219-.082032 0-.160157 0-.242188 0-24.757812 5.503906-50.125-6.320313-61.828125-28.820313-11.707031-22.5-6.832031-50.058593 11.886719-67.171875 18.71875-17.117187 46.601562-19.515625 67.964844-5.847656l13.496093 8.574219c18.625 11.886719 43.355469 6.421875 55.242188-12.199219 11.882812-18.625 6.421875-43.355469-12.199219-55.238281l-13.488281-8.609375c-46.375-29.601563-106.015625-28.347656-151.105469 3.175781-45.085938 31.523437-66.742188 87.105469-54.863281 140.824219 2.355469 10.449218 5.929687 20.582031 10.648437 30.199218 1.339844 2.753907 4.136719 4.5 7.199219 4.496094 1.210937.003906 2.40625-.269531 3.496094-.800781 3.976562-1.929687 5.628906-6.722656 3.695312-10.695313-22.996093-46.933593-12.914062-103.355468 24.910157-139.425781 37.824218-36.066406 94.660156-43.457031 140.449218-18.261719l-8.605468 13.488282c-42.230469-22.6875-94.507813-13.445313-126.402344 22.34375-2.941406 3.296875-2.65625 8.351562.640625 11.296875 3.296875 2.941406 8.351562 2.65625 11.296875-.640625 26.6875-29.941406 70.28125-37.972656 105.886718-19.511719l-8.65625 13.597656c-27.476562-13.558593-60.523437-8.242187-82.363281 13.25-21.839843 21.492188-27.683593 54.449219-14.566406 82.140625s42.324219 44.046875 72.785156 40.761719l3.457031 15.664063c-27.625 3.550781-55.296874-6.207032-74.582031-26.300782-19.285156-20.089844-27.902343-48.136718-23.226562-75.59375.738281-4.359375-2.195313-8.492187-6.554688-9.226562-4.359375-.738282-8.492187 2.195312-9.226562 6.554687-5.84375 32.746094 4.457031 66.300781 27.667969 90.128907 23.210937 23.828124 56.480468 35.007812 89.371093 30.03125l3.445313 15.625c-31.964844 4.898437-64.554688-3.34375-90.351563-22.851563-3.535156-2.648437-8.546875-1.933594-11.199219 1.601563-2.652343 3.535156-1.933593 8.550781 1.601563 11.199218 31.730469 24.0625 72.425781 32.984375 111.3125 24.402344.085937 0 .152344-.089844.238281-.113281.902344-.210938 1.757813-.582031 2.527344-1.097657l.105469-.070312h.046875l28.320312-19.289062 42.726563-29.09375c2.742187-1.84375 4.066406-5.179688 3.335937-8.402344zm-21.261718-134.175782c-7.128907 11.183594-21.976563 14.464844-33.152344 7.328126l-6.746094-4.304688 12.90625-20.222656 12.917969-20.238282 6.738281 4.300782c11.175781 7.125 14.457031 21.960937 7.335938 33.136718zm-24 151.738282-3.199219-14.402344 19.613281 3.199219zm-20.191407-17.21875 5.941407 26.921875-14.246094 9.695312-4.359375-19.695312-4.351563-19.703125zm0 0" fill="#102e52"/><path d="m240.003906 200.011719c0-4.417969-3.582031-8-8-8-4.421875 0-8 3.582031-8 8v32h-48v-32c0-4.417969-3.582031-8-8-8h-96c-4.421875 0-8 3.582031-8 8v32h-16v-112c0-39.765625 32.234375-72 72-72 39.761719 0 72 32.234375 72 72v40h-120c-4.421875 0-8 3.582031-8 8s3.578125 8 8 8h120v24c0 4.417969 3.578125 8 8 8 4.417969 0 8-3.582031 8-8v-80c0-48.601563-39.402344-88-88-88-48.601562 0-88 39.398437-88 88v112h-16v-112c-.003906-28.457031 11.65625-55.671875 32.261719-75.300781 20.605469-19.628907 48.351563-29.957032 76.777344-28.578126 56.316406 3.476563 99.921875 50.660157 98.960937 107.078126v20.800781c0 4.417969 3.578125 8 8 8 4.417969 0 8-3.582031 8-8v-20.800781c.976563-64.96875-49.351562-119.199219-114.210937-123.0625-32.792969-1.585938-64.804688 10.335937-88.570313 32.984374-23.769531 22.648438-37.222656 54.046876-37.21874975 86.878907v120c.03515625.238281.08203125.472656.14062475.703125.050781.542968.15625 1.078125.320313 1.601562.148437.515625.351562 1.015625.609375 1.488282.121093.214843.136719.460937.273437.671874l32 48c1.480469 2.222657 3.980469 3.558594 6.65625 3.558594 2.671875 0 5.171875-1.335937 6.652344-3.558594l32-48c.109375-.214843.199219-.4375.273438-.664062.507812-.953125.824218-2 .929687-3.074219.058594-.238281.109375-.480469.144531-.726562v-32h80v40c0 22.089843 17.90625 40 40 40 22.089844 0 40-17.910157 40-40zm-200 73.597656-17.050781-25.597656h34.105469zm160-1.597656c-13.257812 0-24-10.746094-24-24h48c0 13.253906-10.746094 24-24 24zm0 0" fill="#102e52"/><path d="m72.003906 144.011719h96c4.417969 0 8-3.582031 8-8v-16c0-30.929688-25.074218-56-56-56-30.929687 0-56 25.070312-56 56v16c0 4.417969 3.578125 8 8 8zm8-24c0-22.09375 17.90625-40 40-40 22.089844 0 40 17.90625 40 40v8h-80zm0 0" fill="#102e52"/><path d="m264.464844 138.292969c.148437.515625.351562 1.015625.609375 1.484375.121093.21875.136719.464844.273437.675781l32 48c1.480469 2.222656 3.980469 3.558594 6.65625 3.558594 2.671875 0 5.171875-1.335938 6.652344-3.558594l29.625-44.441406h11.722656c17.214844 0 32.5-11.019531 37.945313-27.351563 5.445312-16.332031-.171875-34.320312-13.945313-44.648437 13.773438-10.332031 19.390625-28.316407 13.945313-44.648438-5.445313-16.335937-20.730469-27.3515622-37.945313-27.3515622h-16c-4.421875 0-8 3.5820312-8 8.0000002v88c0 4.417969 3.578125 8 8 8 4.417969 0 8-3.582031 8-8v-16h8c13.253906 0 24 10.746093 24 24 0 13.253906-10.746094 24-24 24h-40v-120c0-4.417969-3.582031-8.0000002-8-8.0000002-4.421875 0-8 3.5820312-8 8.0000002v120h-16v-120c0-4.417969-3.582031-8.0000002-8-8.0000002-4.421875 0-8 3.5820312-8 8.0000002v128c.035156.238281.082032.472656.140625.703125.050781.535156.160157 1.0625.320313 1.578125zm87.539062-74.28125h-8v-48h8c13.253906 0 24 10.746093 24 24 0 13.253906-10.746094 24-24 24zm-48 105.597656-17.050781-25.597656h34.105469zm0 0" fill="#102e52"/><path d="m138.113281 301.898438c-10.613281-.027344-20.800781 4.1875-28.289062 11.710937l-5.652344 5.65625-90.515625 90.523437s-.046875.078126-.078125.117188c-.644531.671875-1.164063 1.453125-1.535156 2.304688-.097657.222656-.152344.449218-.234375.671874-.132813.320313-.246094.648438-.335938.984376l-11.3125 56.542968c-.535156 2.632813.28125 5.359375 2.183594 7.261719 1.898438 1.898437 4.625 2.71875 7.257812 2.179687l56.578126-11.3125c.335937-.085937.664062-.199218.980468-.335937.226563-.078125.449219-.136719.675782-.230469.851562-.375 1.628906-.894531 2.300781-1.539062.042969 0 .089843-.046875.121093-.078125l90.480469-90.511719 5.65625-5.65625c11.441407-11.4375 14.867188-28.644531 8.675781-43.59375-6.191406-14.949219-20.777343-24.695312-36.957031-24.695312zm16.96875 23.03125c9.375 9.375 9.375 24.574218 0 33.945312l-33.902343-33.902344c9.480468-9.050781 24.398437-9.070312 33.902343-.042968zm-136.878906 136.890624 6.023437-30.152343 12.039063 12.039062 12 12.039063zm46.398437-12.433593-11.34375-11.320313 32.398438-32.398437c3.035156-3.140625 2.988281-8.128907-.09375-11.214844-3.085938-3.085937-8.078125-3.128906-11.214844-.097656l-32.402344 32.398437-11.320312-11.3125 79.199219-79.199218 11.3125 11.320312-14.789063 14.792969c-2.082031 2.007812-2.914062 4.984375-2.183594 7.78125.734376 2.796875 2.917969 4.980469 5.714844 5.710937 2.796875.734375 5.769532-.101562 7.777344-2.179687l14.792969-14.792969 11.320312 11.3125zm0 0" fill="#102e52"/></g><g transform="matrix(0.15921397200861614 -0.035879206335966383 0.035879206335966383 0.15921397200861614 180.06002122021272 10.430842042859858)" id="L1_10"><path d="M360.465,443.988c-4.574-1.161-9.207,1.638-10.342,6.204l-8.533,34.133c-1.152,4.582,1.638,9.207,6.212,10.351     c0.691,0.179,1.391,0.256,2.074,0.256c3.823,0,7.296-2.586,8.269-6.46l8.533-34.133     C367.821,449.765,365.039,445.132,360.465,443.988z" fill="#102e52"/><path d="M256,273.066c1.109,0,2.219-0.213,3.26-0.648l93.867-38.844c4.352-1.801,6.417-6.793,4.617-11.145     c-1.801-4.361-6.81-6.409-11.153-4.625L256,255.299L17.067,156.432v-2.833c0-4.71-3.823-8.533-8.533-8.533S0,148.889,0,153.599     v8.533c0,3.456,2.082,6.571,5.274,7.885l247.467,102.4C253.781,272.852,254.891,273.066,256,273.066z" fill="#102e52"/><path d="M357.513,360.49c-2.082-4.224-7.185-5.965-11.426-3.874c-16.205,8.013-43.273,17.331-81.553,18.603v-76.553     c0-4.71-3.823-8.533-8.533-8.533s-8.533,3.823-8.533,8.533v76.476c-105.958-3.379-140.151-67.567-145.067-78.251v-57.958     c0-4.71-3.823-8.533-8.533-8.533c-4.71,0-8.533,3.823-8.533,8.533v59.733c0,1.084,0.205,2.159,0.606,3.174     c1.485,3.695,37.803,90.692,170.061,90.692c46.225,0,78.618-11.213,97.647-20.617     C357.879,369.825,359.612,364.714,357.513,360.49z" fill="#102e52"/><path d="M384,452.266c-4.719,0-8.533,3.823-8.533,8.533v25.6c0,4.71,3.814,8.533,8.533,8.533c4.719,0,8.533-3.823,8.533-8.533     v-25.6C392.533,456.089,388.719,452.266,384,452.266z" fill="#102e52"/><path d="M503.467,145.066c-4.719,0-8.533,3.823-8.533,8.533v2.816l-102.4,42.146v-15.42l114.193-47.258     c3.191-1.314,5.274-4.429,5.274-7.885c0-3.456-2.082-6.562-5.265-7.885L259.26,17.714c-2.091-0.862-4.429-0.862-6.519,0     L5.274,120.114C2.082,121.437,0,124.543,0,127.999c0,3.456,2.082,6.571,5.274,7.885l247.467,102.4     c1.041,0.435,2.15,0.649,3.26,0.649s2.219-0.213,3.26-0.649l89.481-37.026c4.361-1.792,6.426-6.784,4.625-11.145     c-1.801-4.352-6.793-6.409-11.145-4.617L256,221.166L30.848,127.999L256,34.832l225.152,93.167l-97.971,40.542l-93.841-35.038     c0.495-1.775,0.794-3.601,0.794-5.504c0-14.353-14.993-25.6-34.133-25.6s-34.133,11.247-34.133,25.6     c0,14.353,14.993,25.6,34.133,25.6c8.542,0,16.162-2.33,22.084-6.084l97.382,36.361v27.341v0.009v182.878     c-9.907,3.541-17.067,12.919-17.067,24.03c0,14.114,11.486,25.6,25.6,25.6s25.6-11.486,25.6-25.6     c0-11.11-7.159-20.488-17.067-24.03v-48.435c24.499-18.492,33.28-43.119,33.664-44.211c0.307-0.896,0.469-1.843,0.469-2.79     v-59.733c0-4.71-3.814-8.533-8.533-8.533s-8.533,3.823-8.533,8.533v58.155c-1.476,3.618-6.605,14.771-17.067,25.779V217.019     l114.185-46.993c3.2-1.314,5.282-4.437,5.282-7.893v-8.533C512,148.889,508.186,145.066,503.467,145.066z M256,136.532     c-10.419,0-17.067-5.052-17.067-8.533c0-3.482,6.647-8.533,17.067-8.533s17.067,5.052,17.067,8.533     C273.067,131.481,266.419,136.532,256,136.532z M384,426.666c-4.71,0-8.533-3.831-8.533-8.533c0-4.702,3.823-8.533,8.533-8.533     s8.533,3.831,8.533,8.533C392.533,422.834,388.71,426.666,384,426.666z" fill="#102e52"/><path d="M417.877,450.192c-1.143-4.565-5.786-7.356-10.342-6.204c-4.574,1.143-7.356,5.777-6.212,10.351l8.533,34.133     c0.973,3.874,4.446,6.46,8.269,6.46c0.683,0,1.382-0.077,2.074-0.256c4.574-1.143,7.356-5.769,6.212-10.351L417.877,450.192z" fill="#102e52"/></g><g transform="matrix(0.0847596232111889 0.03178485923173915 -0.03178485923173915 0.0847596232111889 24.438448231185454 172.1646298220448)" id="L1_11"><path d="M467.819,431.851l-36.651-61.056c-16.896-28.181-25.835-60.437-25.835-93.312V224    c0-82.325-67.008-149.333-149.333-149.333S106.667,141.675,106.667,224v53.483c0,32.875-8.939,65.131-25.835,93.312    l-36.651,61.056c-1.984,3.285-2.027,7.403-0.149,10.731c1.899,3.349,5.461,5.419,9.301,5.419h405.333    c3.84,0,7.403-2.069,9.301-5.419C469.845,439.253,469.803,435.136,467.819,431.851z M72.171,426.667l26.944-44.907    C118.016,350.272,128,314.219,128,277.483V224c0-70.592,57.408-128,128-128s128,57.408,128,128v53.483    c0,36.736,9.984,72.789,28.864,104.277l26.965,44.907H72.171z" fill="#102e52"/><path d="M256,0c-23.531,0-42.667,19.136-42.667,42.667v42.667C213.333,91.221,218.112,96,224,96s10.667-4.779,10.667-10.667    V42.667c0-11.776,9.557-21.333,21.333-21.333s21.333,9.557,21.333,21.333v42.667C277.333,91.221,282.112,96,288,96    s10.667-4.779,10.667-10.667V42.667C298.667,19.136,279.531,0,256,0z" fill="#102e52"/><path d="M302.165,431.936c-3.008-5.077-9.515-6.741-14.613-3.819c-5.099,2.987-6.805,9.536-3.819,14.613    c2.773,4.715,4.288,10.368,4.288,15.936c0,17.643-14.357,32-32,32c-17.643,0-32-14.357-32-32c0-5.568,1.515-11.221,4.288-15.936    c2.965-5.099,1.259-11.627-3.819-14.613c-5.141-2.923-11.627-1.259-14.613,3.819c-4.715,8.064-7.211,17.301-7.211,26.731    C202.667,488.085,226.581,512,256,512s53.333-23.915,53.376-53.333C309.376,449.237,306.88,440,302.165,431.936z" fill="#102e52"/></g><g transform="matrix(0.1531554519377721 -0.04084145467200441 0.04084145467200441 0.1531554519377721 299.99271647443896 293.943151442249)" id="L1_12"><path d="M456,217.12H353.68v-19.76c-0.005-2.886-1.564-5.546-4.08-6.96L240,128.8V97.44h21.68v11.92c0,4.418,3.582,8,8,8h65.36    c4.418-0.002,7.998-3.585,7.997-8.003c0-0.926-0.162-1.845-0.477-2.717L336,88l6.64-18.24c1.502-4.155-0.648-8.741-4.803-10.243    c-0.871-0.315-1.79-0.476-2.717-0.477h-29.76v-11.6c0-4.418-3.582-8-8-8H240v-9.76c0-4.418-3.582-8-8-8s-8,3.582-8,8v99.12    l-109.6,61.52c-2.516,1.414-4.075,4.074-4.08,6.96v19.76H8c-4.418,0-8,3.582-8,8v209.28c0,4.418,3.582,8,8,8h448    c4.418,0,8-3.582,8-8v-209.2C464,220.702,460.418,217.12,456,217.12z M305.36,89.44l-0.32-0.32V75.36h18.24L320,85.6    c-0.655,1.782-0.655,3.738,0,5.52l3.76,10.24h-46.08v-3.92h19.68C301.778,97.44,305.36,93.858,305.36,89.44z M240,55.44h49.36    v11.92v14.08H240V55.44z M110.32,426.32H16v-193.2h94.32V426.32z M224,426.32h-42v-91.36h42V426.32z M282,426.32h-42v-91.36h42    V426.32z M338,426.32h-40v-99.36c0-4.418-3.582-8-8-8H174c-4.418,0-8,3.582-8,8v99.36h-40v-224l106-59.68L337.68,202l0.32,23.04    V426.32z M448,426.32h-94.32v-193.2H448V426.32z" fill="#102e52"/><path d="M232,167.12c-18.526,0.044-33.52,15.074-33.52,33.6c0.044,18.513,15.087,33.484,33.6,33.44    c18.513-0.044,33.484-15.087,33.44-33.6C265.476,182.079,250.481,167.12,232,167.12z M232,218.16    c-9.676-0.044-17.484-7.924-17.44-17.6c0.044-9.613,7.826-17.396,17.44-17.44c9.689,0.044,17.52,7.911,17.52,17.6h0.08    C249.556,210.396,241.676,218.204,232,218.16z" fill="#102e52"/><rect x="35px" y="250px" width="16px" height="32px" fill="#102e52"/><rect x="74px" y="250px" width="16px" height="32px" fill="#102e52"/><rect x="150px" y="250px" width="32px" height="16px" fill="#102e52"/><rect x="216px" y="250px" width="32px" height="16px" fill="#102e52"/><rect x="281px" y="250px" width="32px" height="16px" fill="#102e52"/><rect x="150px" y="288px" width="32px" height="16px" fill="#102e52"/><rect x="216px" y="288px" width="32px" height="16px" fill="#102e52"/><rect x="281px" y="288px" width="32px" height="16px" fill="#102e52"/><rect x="35px" y="313px" width="16px" height="32px" fill="#102e52"/><rect x="74px" y="313px" width="16px" height="32px" fill="#102e52"/><rect x="35px" y="376px" width="16px" height="32px" fill="#102e52"/><rect x="74px" y="376px" width="16px" height="32px" fill="#102e52"/><rect x="373px" y="250px" width="16px" height="32px" fill="#102e52"/><rect x="412px" y="250px" width="16px" height="32px" fill="#102e52"/><rect x="373px" y="313px" width="16px" height="32px" fill="#102e52"/><rect x="412px" y="313px" width="16px" height="32px" fill="#102e52"/><rect x="373px" y="376px" width="16px" height="32px" fill="#102e52"/><rect x="412px" y="376px" width="16px" height="32px" fill="#102e52"/></g><path d="M453.443,160.214l-119.7-8.6c-2.5-0.2-4.7-1.7-5.6-4.1l-45.6-111c-6.3-15.3-20.5-24.8-37.1-24.8s-30.7,9.5-37.1,24.9   l-45.7,111.1c-1,2.3-3.1,3.9-5.6,4.1l-119.5,8.6c-16.2,0.9-30,11.5-35.3,27.1c-5.4,15.8-0.9,32.4,11.9,43.3l92.5,76.4   c1.9,1.6,2.8,4.2,2.2,6.6l-28.2,115.4c-3.3,12-1,24.4,6.3,34.1c7.5,9.8,19.2,15.7,31.5,15.7c7.6,0,15-2.3,21.1-6.4l101.1-62.9   c2.1-1.3,4.8-1.3,6.9,0l102.1,62.7c6.4,4.3,13.8,6.6,21.3,6.6c11.5,0,22.9-5.5,30.3-14.8c7.7-9.6,10.5-22.1,7.7-34.6l-28.3-115.7   c-0.6-2.5,0.3-5.1,2.2-6.7l93.9-76.6c12.6-10.8,17.1-27.4,11.8-43.2C483.343,171.814,469.443,161.114,453.443,160.214z    M461.143,211.714l-93.7,76.5c-9.2,7.5-13.4,19.9-10.5,31.5l28.3,115.5c1.5,6.8-1.2,11.5-3,13.7c-2.8,3.5-7,5.7-11.2,5.7   c-2.6,0-5.2-0.8-8-2.7l-102.5-63c-4.9-3-10.5-4.6-16.3-4.6s-11.5,1.6-16.4,4.7l-101.5,63.1c-6.5,4.3-15.2,2.4-19.8-3.6   c-1.9-2.5-3.9-6.8-2.1-13.1l28.3-115.8c2.8-11.5-1.3-23.8-10.4-31.3l-92.3-76.3c-7.3-6.3-5.3-14.4-4.5-16.7s4.1-10,13.7-10.5   l119.7-8.6c11.8-0.9,22-8.2,26.5-19.2l45.7-111.1c3.7-9,12-9.7,14.4-9.7c2.4,0,10.7,0.7,14.4,9.7l45.7,111.1   c4.5,11,14.7,18.3,26.5,19.2l119.9,8.7c9.4,0.5,12.7,8.2,13.5,10.5C466.143,197.514,468.143,205.614,461.143,211.714z" transform="matrix(0.029537577823442716 -0.005907515690533473 0.005907515690533473 0.029537577823442716 249.26935741972554 299.1999444314587)" id="L1_14" fill="#102e52"/><path d="M385.621,62.507 146.225,301.901 21.213,176.891 0,198.104 146.225,344.327 406.834,83.72z" transform="matrix(0.03642064413030277 -0.012140214105946408 0.012140214105946408 0.03642064413030277 214.07558241009878 195.05588134679482)" id="L1_15" fill="#102e52"/><g transform="matrix(0.1559573804547139 0.020794318015195847 -0.020794318015195847 0.1559573804547139 13.411838563995683 45.516157162833295)" id="L1_20"><path d="M77.955,109.975c-4.037,0-7.309,3.271-7.309,7.308c0,4.037,3.272,7.31,7.309,7.31h56.029c4.037,0,7.309-3.271,7.309-7.31    c0-4.036-3.271-7.308-7.309-7.308H77.955z" fill="#102e52"/><path d="M0,44.2c0,4.037,3.272,7.308,7.309,7.308h19.489v19.49c0,4.036,3.271,7.309,7.308,7.309c4.037,0,7.309-3.271,7.309-7.309    v-19.49H63.34c4.037,0,7.308-3.271,7.308-7.308c0-4.037-3.271-7.309-7.308-7.309H41.414V12.53c0-4.037-3.272-7.308-7.309-7.308    c-4.037,0-7.308,3.271-7.308,7.308v24.361H7.308C3.272,36.892,0,40.164,0,44.2z" fill="#102e52"/><path d="M131.428,17.261c-2.854-2.855-7.481-2.855-10.336,0L14.763,123.594c-2.853,2.854-2.853,7.481,0,10.334    c1.425,1.429,3.298,2.143,5.167,2.143c1.868,0,3.742-0.714,5.169-2.143L131.428,27.599    C134.283,24.746,134.283,20.114,131.428,17.261z" fill="#102e52"/></g></defs><g fi:class="KUsePattern" opacity="0.2"><pattern id="pattern_L1_0" width="350" height="350" patternUnits="userSpaceOnUse"><use xlink:href="#L1_0" x="-350" y="-350"/><use xlink:href="#L1_0" x="0" y="-350"/><use xlink:href="#L1_0" x="350" y="-350"/><use xlink:href="#L1_0" x="-350" y="0"/><use xlink:href="#L1_0" x="0" y="0"/><use xlink:href="#L1_0" x="350" y="0"/><use xlink:href="#L1_0" x="-350" y="350"/><use xlink:href="#L1_0" x="0" y="350"/><use xlink:href="#L1_0" x="350" y="350"/></pattern><rect x="0" y="0" width="100%" height="100%" fill="url(#pattern_L1_0)"/></g><g fi:class="KUsePattern" opacity="0.2"><pattern id="pattern_L1_1" width="350" height="350" patternUnits="userSpaceOnUse"><use xlink:href="#L1_1" x="-350" y="-350"/><use xlink:href="#L1_1" x="0" y="-350"/><use xlink:href="#L1_1" x="350" y="-350"/><use xlink:href="#L1_1" x="-350" y="0"/><use xlink:href="#L1_1" x="0" y="0"/><use xlink:href="#L1_1" x="350" y="0"/><use xlink:href="#L1_1" x="-350" y="350"/><use xlink:href="#L1_1" x="0" y="350"/><use xlink:href="#L1_1" x="350" y="350"/></pattern><rect x="0" y="0" width="100%" height="100%" fill="url(#pattern_L1_1)"/></g><g fi:class="KUsePattern" opacity="0.2"><pattern id="pattern_L1_2" width="350" height="350" patternUnits="userSpaceOnUse"><use xlink:href="#L1_2" x="-350" y="-350"/><use xlink:href="#L1_2" x="0" y="-350"/><use xlink:href="#L1_2" x="350" y="-350"/><use xlink:href="#L1_2" x="-350" y="0"/><use xlink:href="#L1_2" x="0" y="0"/><use xlink:href="#L1_2" x="350" y="0"/><use xlink:href="#L1_2" x="-350" y="350"/><use xlink:href="#L1_2" x="0" y="350"/><use xlink:href="#L1_2" x="350" y="350"/></pattern><rect x="0" y="0" width="100%" height="100%" fill="url(#pattern_L1_2)"/></g><g fi:class="KUsePattern" opacity="0.2"><pattern id="pattern_L1_3" width="350" height="350" patternUnits="userSpaceOnUse"><use xlink:href="#L1_3" x="-350" y="-350"/><use xlink:href="#L1_3" x="0" y="-350"/><use xlink:href="#L1_3" x="350" y="-350"/><use xlink:href="#L1_3" x="-350" y="0"/><use xlink:href="#L1_3" x="0" y="0"/><use xlink:href="#L1_3" x="350" y="0"/><use xlink:href="#L1_3" x="-350" y="350"/><use xlink:href="#L1_3" x="0" y="350"/><use xlink:href="#L1_3" x="350" y="350"/></pattern><rect x="0" y="0" width="100%" height="100%" fill="url(#pattern_L1_3)"/></g><g fi:class="KUsePattern" opacity="0.2"><pattern id="pattern_L1_5" width="350" height="350" patternUnits="userSpaceOnUse"><use xlink:href="#L1_5" x="-350" y="-350"/><use xlink:href="#L1_5" x="0" y="-350"/><use xlink:href="#L1_5" x="350" y="-350"/><use xlink:href="#L1_5" x="-350" y="0"/><use xlink:href="#L1_5" x="0" y="0"/><use xlink:href="#L1_5" x="350" y="0"/><use xlink:href="#L1_5" x="-350" y="350"/><use xlink:href="#L1_5" x="0" y="350"/><use xlink:href="#L1_5" x="350" y="350"/></pattern><rect x="0" y="0" width="100%" height="100%" fill="url(#pattern_L1_5)"/></g><g fi:class="KUsePattern" opacity="0.2"><pattern id="pattern_L1_7" width="350" height="350" patternUnits="userSpaceOnUse"><use xlink:href="#L1_7" x="-350" y="-350"/><use xlink:href="#L1_7" x="0" y="-350"/><use xlink:href="#L1_7" x="350" y="-350"/><use xlink:href="#L1_7" x="-350" y="0"/><use xlink:href="#L1_7" x="0" y="0"/><use xlink:href="#L1_7" x="350" y="0"/><use xlink:href="#L1_7" x="-350" y="350"/><use xlink:href="#L1_7" x="0" y="350"/><use xlink:href="#L1_7" x="350" y="350"/></pattern><rect x="0" y="0" width="100%" height="100%" fill="url(#pattern_L1_7)"/></g><g fi:class="KUsePattern" opacity="0.2"><pattern id="pattern_L1_8" width="350" height="350" patternUnits="userSpaceOnUse"><use xlink:href="#L1_8" x="-350" y="-350"/><use xlink:href="#L1_8" x="0" y="-350"/><use xlink:href="#L1_8" x="350" y="-350"/><use xlink:href="#L1_8" x="-350" y="0"/><use xlink:href="#L1_8" x="0" y="0"/><use xlink:href="#L1_8" x="350" y="0"/><use xlink:href="#L1_8" x="-350" y="350"/><use xlink:href="#L1_8" x="0" y="350"/><use xlink:href="#L1_8" x="350" y="350"/></pattern><rect x="0" y="0" width="100%" height="100%" fill="url(#pattern_L1_8)"/></g><g fi:class="KUsePattern" opacity="0.2"><pattern id="pattern_L1_10" width="350" height="350" patternUnits="userSpaceOnUse"><use xlink:href="#L1_10" x="-350" y="-350"/><use xlink:href="#L1_10" x="0" y="-350"/><use xlink:href="#L1_10" x="350" y="-350"/><use xlink:href="#L1_10" x="-350" y="0"/><use xlink:href="#L1_10" x="0" y="0"/><use xlink:href="#L1_10" x="350" y="0"/><use xlink:href="#L1_10" x="-350" y="350"/><use xlink:href="#L1_10" x="0" y="350"/><use xlink:href="#L1_10" x="350" y="350"/></pattern><rect x="0" y="0" width="100%" height="100%" fill="url(#pattern_L1_10)"/></g><g fi:class="KUsePattern" opacity="0.2"><pattern id="pattern_L1_11" width="350" height="350" patternUnits="userSpaceOnUse"><use xlink:href="#L1_11" x="-350" y="-350"/><use xlink:href="#L1_11" x="0" y="-350"/><use xlink:href="#L1_11" x="350" y="-350"/><use xlink:href="#L1_11" x="-350" y="0"/><use xlink:href="#L1_11" x="0" y="0"/><use xlink:href="#L1_11" x="350" y="0"/><use xlink:href="#L1_11" x="-350" y="350"/><use xlink:href="#L1_11" x="0" y="350"/><use xlink:href="#L1_11" x="350" y="350"/></pattern><rect x="0" y="0" width="100%" height="100%" fill="url(#pattern_L1_11)"/></g><g fi:class="KUsePattern" opacity="0.2"><pattern id="pattern_L1_12" width="350" height="350" patternUnits="userSpaceOnUse"><use xlink:href="#L1_12" x="-350" y="-350"/><use xlink:href="#L1_12" x="0" y="-350"/><use xlink:href="#L1_12" x="350" y="-350"/><use xlink:href="#L1_12" x="-350" y="0"/><use xlink:href="#L1_12" x="0" y="0"/><use xlink:href="#L1_12" x="350" y="0"/><use xlink:href="#L1_12" x="-350" y="350"/><use xlink:href="#L1_12" x="0" y="350"/><use xlink:href="#L1_12" x="350" y="350"/></pattern><rect x="0" y="0" width="100%" height="100%" fill="url(#pattern_L1_12)"/></g><g fi:class="KUsePattern" opacity="0.5"><pattern id="pattern_L1_14" width="350" height="350" patternUnits="userSpaceOnUse"><use xlink:href="#L1_14" x="-350" y="-350"/><use xlink:href="#L1_14" x="0" y="-350"/><use xlink:href="#L1_14" x="350" y="-350"/><use xlink:href="#L1_14" x="-350" y="0"/><use xlink:href="#L1_14" x="0" y="0"/><use xlink:href="#L1_14" x="350" y="0"/><use xlink:href="#L1_14" x="-350" y="350"/><use xlink:href="#L1_14" x="0" y="350"/><use xlink:href="#L1_14" x="350" y="350"/></pattern><rect x="0" y="0" width="100%" height="100%" fill="url(#pattern_L1_14)"/></g><g fi:class="KUsePattern" opacity="0.2"><pattern id="pattern_L1_15" width="350" height="350" patternUnits="userSpaceOnUse"><use xlink:href="#L1_15" x="-350" y="-350"/><use xlink:href="#L1_15" x="0" y="-350"/><use xlink:href="#L1_15" x="350" y="-350"/><use xlink:href="#L1_15" x="-350" y="0"/><use xlink:href="#L1_15" x="0" y="0"/><use xlink:href="#L1_15" x="350" y="0"/><use xlink:href="#L1_15" x="-350" y="350"/><use xlink:href="#L1_15" x="0" y="350"/><use xlink:href="#L1_15" x="350" y="350"/></pattern><rect x="0" y="0" width="100%" height="100%" fill="url(#pattern_L1_15)"/></g><g fi:class="KUsePattern" opacity="0.2"><pattern id="pattern_L1_20" width="350" height="350" patternUnits="userSpaceOnUse"><use xlink:href="#L1_20" x="-350" y="-350"/><use xlink:href="#L1_20" x="0" y="-350"/><use xlink:href="#L1_20" x="350" y="-350"/><use xlink:href="#L1_20" x="-350" y="0"/><use xlink:href="#L1_20" x="0" y="0"/><use xlink:href="#L1_20" x="350" y="0"/><use xlink:href="#L1_20" x="-350" y="350"/><use xlink:href="#L1_20" x="0" y="350"/><use xlink:href="#L1_20" x="350" y="350"/></pattern><rect x="0" y="0" width="100%" height="100%" fill="url(#pattern_L1_20)"/></g></svg>